#N canvas 468 56 799 603 10;
#X obj 219 245 textfile;
#X msg 230 114 rewind;
#X msg -82 292 69;
#X obj 231 464 noteout 1;
#X obj 367 226 delay 500;
#X floatatom 401 187 5 0 0 0 - - -;
#X obj 225 345 + 48;
#X obj 230 431 makenote 60 800;
#X floatatom 318 396 5 0 0 0 - - -;
#X obj -126 212 bng 15 250 50 0 empty empty empty 17 7 0 10 -262144
-1 -1;
#X obj -152 247 t b b b;
#X obj -109 415 makenote 60 800;
#X obj 273 212 spigot;
#X msg 300 126 1;
#X msg 344 128 0;
#X floatatom 246 313 5 0 0 0 - - -;
#X obj 275 276 bang;
#X obj 271 169 bng 15 250 50 0 empty empty empty 17 7 0 10 -262144
-1 -1;
#X msg 344 304 60;
#X msg 410 152 1000;
#X msg 519 164 10;
#X text 434 224 length between notes;
#X text 280 344 shift MIDI note;
#X text 407 115 start/stop stream;
#X msg 417 337 this is a text;
#X obj 250 377 print a;
#X obj -128 469 noteout 2;
#X msg 450 139 500;
#X msg -125 346 76;
#X msg 199 87 read ../data/1/word_lengths/clinton;
#X msg -70 263 80;
#X msg 486 138 250;
#X obj 592 239 textfile;
#X msg 603 108 rewind;
#X obj 740 220 delay 500;
#X floatatom 774 181 5 0 0 0 - - -;
#X obj 598 339 + 48;
#X obj 603 425 makenote 60 800;
#X floatatom 691 390 5 0 0 0 - - -;
#X obj 646 206 spigot;
#X msg 673 120 1;
#X msg 717 122 0;
#X floatatom 619 307 5 0 0 0 - - -;
#X obj 648 270 bang;
#X obj 644 163 bng 15 250 50 0 empty empty empty 17 7 0 10 -262144
-1 -1;
#X msg 717 298 60;
#X msg 783 146 1000;
#X msg 892 158 10;
#X text 807 218 length between notes;
#X text 653 338 shift MIDI note;
#X text 780 109 start/stop stream;
#X msg 790 331 this is a text;
#X obj 623 371 print a;
#X msg 823 133 500;
#X msg 859 132 250;
#X msg 572 81 read ../data/1/word_lengths/trump;
#X msg 484 22 1;
#X msg 560 22 0;
#X obj 604 458 noteout 2;
#X connect 0 0 6 0;
#X connect 0 0 16 0;
#X connect 1 0 0 0;
#X connect 2 0 11 0;
#X connect 4 0 17 0;
#X connect 5 0 4 1;
#X connect 6 0 7 0;
#X connect 6 0 25 0;
#X connect 7 0 3 0;
#X connect 7 1 3 1;
#X connect 8 0 7 2;
#X connect 9 0 10 0;
#X connect 10 0 28 0;
#X connect 10 1 2 0;
#X connect 10 2 30 0;
#X connect 11 0 26 0;
#X connect 11 1 26 1;
#X connect 12 0 0 0;
#X connect 13 0 12 1;
#X connect 13 0 17 0;
#X connect 14 0 12 1;
#X connect 15 0 6 1;
#X connect 16 0 4 0;
#X connect 17 0 12 0;
#X connect 18 0 6 1;
#X connect 19 0 5 0;
#X connect 20 0 5 0;
#X connect 24 0 25 0;
#X connect 27 0 5 0;
#X connect 28 0 11 0;
#X connect 29 0 0 0;
#X connect 30 0 11 0;
#X connect 31 0 5 0;
#X connect 32 0 36 0;
#X connect 32 0 43 0;
#X connect 33 0 32 0;
#X connect 34 0 44 0;
#X connect 35 0 34 1;
#X connect 36 0 37 0;
#X connect 36 0 52 0;
#X connect 37 0 58 0;
#X connect 37 1 58 1;
#X connect 38 0 37 2;
#X connect 39 0 32 0;
#X connect 40 0 39 1;
#X connect 40 0 44 0;
#X connect 41 0 39 1;
#X connect 42 0 36 1;
#X connect 43 0 34 0;
#X connect 44 0 39 0;
#X connect 45 0 36 1;
#X connect 46 0 35 0;
#X connect 47 0 35 0;
#X connect 51 0 52 0;
#X connect 53 0 35 0;
#X connect 54 0 35 0;
#X connect 55 0 32 0;
#X connect 56 0 13 0;
#X connect 56 0 40 0;
#X connect 57 0 14 0;
#X connect 57 0 41 0;
