#N canvas 0 23 1280 703 10;
#X obj 51 264 textfile;
#X obj 140 499 noteout 1;
#X obj 199 245 delay 500;
#X floatatom 233 206 5 0 0 0 - - -;
#X obj 139 466 makenote 60 800;
#X obj 105 231 spigot;
#X msg 132 145 1;
#X msg 176 147 0;
#X obj 107 295 bang;
#X obj 105 192 bng 15 250 50 0 empty empty empty 17 7 0 10 -262144
-1 -1;
#X text 185 227 length between notes;
#X obj 856 259 textfile;
#X obj 1004 240 delay 500;
#X floatatom 1038 201 5 0 0 0 - - -;
#X obj 910 226 spigot;
#X msg 937 140 1;
#X msg 981 142 0;
#X obj 912 290 bang;
#X obj 908 183 bng 15 250 50 0 empty empty empty 17 7 0 10 -262144
-1 -1;
#X text 1071 238 length between notes;
#X msg 542 54 1;
#X msg 618 54 0;
#X msg 836 101 read ../data/1/word_lengths/trump_KEY;
#X obj 862 392 moses 60;
#X obj 934 413 + 24;
#X floatatom 967 382 5 0 0 0 - - -;
#X obj 173 429 +;
#X floatatom 200 404 5 0 0 0 - - -;
#X msg 1047 385 24;
#X msg 242 402 0;
#X obj 417 392 textfile;
#X obj 581 386 delay 500;
#X floatatom 615 347 5 0 0 0 - - -;
#X obj 487 372 spigot;
#X msg 514 286 1;
#X msg 558 288 0;
#X floatatom 449 447 5 0 0 0 - - -;
#X obj 498 419 bang;
#X obj 485 329 bng 15 250 50 0 empty empty empty 17 7 0 10 -262144
-1 -1;
#X text 737 195 length between notes;
#X obj 421 514 makenote 60 50;
#X msg 413 247 read ../data/1/word_lengths/holt;
#X obj 954 476 noteout 2;
#X obj 421 557 noteout 3;
#X msg 251 173 26.39;
#X msg 1029 173 21.09;
#X msg 620 316 88.76;
#X msg 4 107 read ../data/1/word_lengths/clinton_KEY;
#X floatatom 39 536 5 0 0 0 - - -;
#X msg 99 463 0;
#X text -180 401 continues to ramp up trump volume after clinton finishes
;
#X obj 54 500 counter;
#X obj 857 466 counter;
#X floatatom 854 516 5 0 0 0 - - -;
#X obj 854 545 + 20;
#X msg 880 435 0;
#X text 895 509 increase clinton vol during trump silence;
#X obj 856 613 ctlout 7 1;
#X obj 860 351 + 60;
#X msg 1084 385 0;
#X msg -36 408 0;
#X obj 38 634 ctlout 7 2;
#X obj 40 566 + 30;
#X obj 38 599 moses 110;
#X obj 57 364 + 80;
#X obj 55 425 moses 80;
#X msg 86 327 70;
#X msg 914 325 25;
#X obj 953 443 makenote 60 400;
#X text 112 363 base MIDI note;
#X text 941 324 base MIDI note;
#X text 487 446 base MIDI note;
#X text 996 354 shift MIDI note#;
#X text 192 389 harmony;
#X text 239 134;
#X text 49 69 CLINTON;
#X text 945 75 TRUMP;
#X text 490 211 HOLT;
#X msg 434 37 rewind;
#X obj 421 471 + 68;
#X msg 558 464 68;
#X obj -19 509 print met;
#X obj 854 577 moses 90;
#X obj -31 459 metro 175;
#X obj 240 636 ctlout 10 1;
#X obj 574 640 ctlout 10 2;
#X obj 243 599 hsl 128 15 0 127 0 0 empty empty empty -2 -8 0 10 -262144
-1 -1 1900 1;
#X obj 575 599 hsl 128 15 0 127 0 0 empty empty empty -2 -8 0 10 -262144
-1 -1 10800 1;
#X obj 430 616 expr 127-$f1;
#X text 337 583 clinton pan;
#X text 692 576 trump pan;
#X obj 648 451 hsl 128 15 0 127 0 0 empty empty empty -2 -8 0 10 -262144
-1 -1 6400 1;
#X text 730 427 holt pan;
#X obj 645 477 ctlout 10 3;
#X obj 333 397 vsl 15 128 0 127 0 0 empty empty empty 0 -9 0 10 -262144
-1 -1 5400 1;
#X obj 333 543 ctlout 7 3;
#X msg 664 419 64;
#X text -28 559 trump vol.;
#X text 941 566 clinton vol;
#X connect 0 0 8 0;
#X connect 0 0 64 0;
#X connect 0 1 83 0;
#X connect 2 0 9 0;
#X connect 3 0 2 1;
#X connect 4 0 1 0;
#X connect 4 1 1 1;
#X connect 5 0 0 0;
#X connect 6 0 5 1;
#X connect 6 0 9 0;
#X connect 7 0 5 1;
#X connect 8 0 2 0;
#X connect 9 0 5 0;
#X connect 11 0 17 0;
#X connect 11 0 58 0;
#X connect 11 1 60 0;
#X connect 12 0 18 0;
#X connect 13 0 12 1;
#X connect 14 0 11 0;
#X connect 15 0 14 1;
#X connect 15 0 18 0;
#X connect 16 0 14 1;
#X connect 17 0 12 0;
#X connect 18 0 14 0;
#X connect 20 0 6 0;
#X connect 20 0 15 0;
#X connect 20 0 34 0;
#X connect 21 0 7 0;
#X connect 21 0 16 0;
#X connect 21 0 35 0;
#X connect 21 0 83 1;
#X connect 21 0 83 0;
#X connect 22 0 11 0;
#X connect 23 0 52 0;
#X connect 23 1 24 0;
#X connect 23 1 55 0;
#X connect 24 0 68 0;
#X connect 25 0 24 1;
#X connect 26 0 4 0;
#X connect 27 0 26 1;
#X connect 28 0 24 1;
#X connect 29 0 26 1;
#X connect 30 0 37 0;
#X connect 30 0 79 0;
#X connect 31 0 38 0;
#X connect 32 0 31 1;
#X connect 33 0 30 0;
#X connect 34 0 33 1;
#X connect 34 0 38 0;
#X connect 35 0 33 1;
#X connect 36 0 79 1;
#X connect 37 0 31 0;
#X connect 38 0 33 0;
#X connect 40 0 43 0;
#X connect 40 1 43 1;
#X connect 41 0 30 0;
#X connect 44 0 3 0;
#X connect 45 0 13 0;
#X connect 46 0 32 0;
#X connect 47 0 0 0;
#X connect 48 0 62 0;
#X connect 49 0 51 3;
#X connect 51 0 48 0;
#X connect 52 0 53 0;
#X connect 53 0 54 0;
#X connect 54 0 82 0;
#X connect 55 0 52 3;
#X connect 58 0 23 0;
#X connect 59 0 24 1;
#X connect 60 0 83 0;
#X connect 62 0 63 0;
#X connect 63 0 61 0;
#X connect 64 0 65 0;
#X connect 65 0 51 0;
#X connect 65 1 4 0;
#X connect 65 1 26 0;
#X connect 65 1 49 0;
#X connect 66 0 64 1;
#X connect 66 0 65 1;
#X connect 67 0 58 1;
#X connect 67 0 23 1;
#X connect 68 0 42 0;
#X connect 68 1 42 1;
#X connect 78 0 0 0;
#X connect 78 0 11 0;
#X connect 78 0 30 0;
#X connect 79 0 40 0;
#X connect 80 0 79 1;
#X connect 82 0 57 0;
#X connect 83 0 51 0;
#X connect 83 0 81 0;
#X connect 86 0 84 0;
#X connect 86 0 88 0;
#X connect 87 0 85 0;
#X connect 88 0 87 0;
#X connect 91 0 93 0;
#X connect 94 0 95 0;
#X connect 96 0 91 0;
