#N canvas 723 190 517 509 10;
#X obj 165 119 textfile;
#X msg 176 -12 rewind;
#X msg 79 188 69;
#X obj 177 338 noteout 1;
#X obj 313 100 delay 500;
#X floatatom 347 61 5 0 0 0 - - -;
#X obj 171 219 + 48;
#X obj 176 305 makenote 60 800;
#X floatatom 264 270 5 0 0 0 - - -;
#X obj 35 108 bng 15 250 50 0 empty empty empty 17 7 0 10 -262144 -1
-1;
#X msg 36 242 72;
#X obj 9 143 t b b b;
#X msg 91 159 76;
#X obj 52 311 makenote 60 800;
#X obj 33 365 noteout 10;
#X obj 219 86 spigot;
#X msg 246 0 1;
#X msg 290 2 0;
#X floatatom 192 187 5 0 0 0 - - -;
#X obj 221 150 bang;
#X obj 217 43 bng 15 250 50 0 empty empty empty 17 7 0 10 -262144 -1
-1;
#X msg 290 178 60;
#X msg 356 26 1000;
#X msg 418 33 10;
#X text 380 98 length between notes;
#X text 226 218 shift MIDI note;
#X text 353 -11 start/stop stream;
#X msg 89 37 fast-foward;
#X msg 145 -39 read ./data/word_lengths_1;
#X msg 29 -42 read ./data/done;
#X msg 363 211 this is a text;
#X obj 353 306 metro;
#X obj 421 308 bng 15 250 50 0 empty empty empty 17 7 0 10 -262144
-1 -1;
#X obj 196 251 print a;
#X obj 341 348 print a;
#X connect 0 0 6 0;
#X connect 0 0 19 0;
#X connect 1 0 0 0;
#X connect 2 0 13 0;
#X connect 4 0 20 0;
#X connect 5 0 4 1;
#X connect 6 0 7 0;
#X connect 6 0 33 0;
#X connect 7 0 3 0;
#X connect 7 1 3 1;
#X connect 8 0 7 2;
#X connect 9 0 11 0;
#X connect 10 0 13 0;
#X connect 11 0 10 0;
#X connect 11 1 2 0;
#X connect 12 0 13 0;
#X connect 13 0 14 0;
#X connect 13 1 14 1;
#X connect 15 0 0 0;
#X connect 16 0 15 1;
#X connect 16 0 20 0;
#X connect 17 0 15 1;
#X connect 18 0 6 1;
#X connect 19 0 4 0;
#X connect 20 0 15 0;
#X connect 21 0 6 1;
#X connect 22 0 5 0;
#X connect 23 0 5 0;
#X connect 27 0 0 0;
#X connect 28 0 0 0;
#X connect 29 0 0 0;
#X connect 30 0 33 0;
#X connect 31 0 32 0;
#X connect 31 0 34 0;
#X connect 32 0 31 0;
